<svg width="391.96158049037143" height="78.4" viewBox="0 0 391.96158049037143 78.4" ><defs id="SvgjsDefs1190"><linearGradient id="SvgjsLinearGradient1197"><stop id="SvgjsStop1198" stop-color="#8f5e25" offset="0"></stop><stop id="SvgjsStop1199" stop-color="#fbf4a1" offset="0.5"></stop><stop id="SvgjsStop1200" stop-color="#8f5e25" offset="1"></stop></linearGradient><linearGradient id="SvgjsLinearGradient1201"><stop id="SvgjsStop1202" stop-color="#8f5e25" offset="0"></stop><stop id="SvgjsStop1203" stop-color="#fbf4a1" offset="0.5"></stop><stop id="SvgjsStop1204" stop-color="#8f5e25" offset="1"></stop></linearGradient></defs><g id="SvgjsG1191" featurekey="symbolContainer" transform="matrix(1.568,0,0,1.568,0,0)" fill="url(#SvgjsLinearGradient1197)"><circle cx="25" cy="25" r="25"></circle></g><g id="SvgjsG1192" featurekey="symbolFeature-0" transform="matrix(0.6226472582763669,0,0,0.6226472582763669,7.886663355962137,8.384108672544397)" fill="#70300e"><path xmlns="http://www.w3.org/2000/svg" fill-rule="evenodd" clip-rule="evenodd" d="M37.854,26.105c4.419,0.427,9.428,0.088,13.873,1.506  c9.941,3.172,12.788,12.875,6.951,21.616c-5.842,8.748-19.074,12.679-28.707,8.529c-5.733-2.47-8.564-7.035-8.386-13.493  c0.031-1.115,0.004-2.23,0.004-3.859c-1.384,1.08-2.314,2.11-3.474,2.62c-1.036,0.456-2.631,0.83-3.42,0.339  c-0.834-0.521-1.51-2.167-1.378-3.21c0.498-3.95,2.573-7.114,5.903-9.304c2.276-1.498,4.431-0.314,4.684,2.432  c0.073,0.803,0.011,1.618,0.011,2.586c3.181-2.606,6.212-5.089,9.882-8.096c-1.812,0.348-2.923,0.822-3.96,0.692  c-1.139-0.141-2.447-0.605-3.204-1.391c-0.354-0.366,0.118-2.113,0.728-2.727c3.469-3.495,7.695-5.516,12.689-5.434  c2.33,0.038,3.104,1.875,1.559,3.693C40.347,24.094,38.744,25.293,37.854,26.105z"></path><path xmlns="http://www.w3.org/2000/svg" fill-rule="evenodd" clip-rule="evenodd" d="M67.94,49.245c6.422,0.004,9.633,4.886,6.659,10.807  c-3.024,6.023-8.019,9.765-15.011,9.989c-6.783,0.217-9.113-4.218-6.999-10.354C54.57,53.937,61.87,49.242,67.94,49.245z"></path><path xmlns="http://www.w3.org/2000/svg" fill-rule="evenodd" clip-rule="evenodd" d="M74.326,45.595c-5.795-0.04-10.959-5.349-10.944-11.251  c0.01-4.357,3.075-7.577,7.186-7.55c5.739,0.039,11.674,6.009,11.645,11.717C82.191,42.906,79.158,45.627,74.326,45.595z"></path><path xmlns="http://www.w3.org/2000/svg" fill-rule="evenodd" clip-rule="evenodd" d="M36.197,75.248c-2.691-0.746-5.478-1.256-8.046-2.303  c-2.54-1.036-4.417-3.082-4.375-6.015c0.041-2.863,2.01-4.553,4.556-5.425c4.971-1.703,9.95-1.554,14.65,0.823  c2.614,1.323,4.723,3.389,4.095,6.751c-0.636,3.414-3.49,4.53-6.349,5.351c-1.381,0.397-2.913,0.271-4.377,0.383  C36.3,74.958,36.249,75.102,36.197,75.248z"></path><path xmlns="http://www.w3.org/2000/svg" fill-rule="evenodd" clip-rule="evenodd" d="M88.205,52.5c5.772-0.035,8.319,4.093,5.863,8.747  c-2.173,4.12-7.616,6.623-11.453,5.267c-3.709-1.311-5.093-4.566-3.344-8.096C81.184,54.559,84.474,52.786,88.205,52.5z"></path><path xmlns="http://www.w3.org/2000/svg" fill-rule="evenodd" clip-rule="evenodd" d="M46.266,87.77c-2.305-0.647-4.112-0.884-5.658-1.646  c-3.387-1.671-3.609-5.446-0.465-7.569c3.783-2.554,7.987-2.739,12.106-1.13c3.565,1.392,4.038,5.329,0.839,7.496  C51.013,86.325,48.388,86.917,46.266,87.77z"></path><path xmlns="http://www.w3.org/2000/svg" fill-rule="evenodd" clip-rule="evenodd" d="M57.453,27.11c-2.69-0.852-5.713-1.424-8.362-2.749  c-2.986-1.494-2.787-4.063,0.091-5.745c3.72-2.173,12.656-1.704,16.048,0.843c2.476,1.857,2.406,4.397-0.435,5.661  C62.648,26.075,60.217,26.391,57.453,27.11z"></path><path xmlns="http://www.w3.org/2000/svg" fill-rule="evenodd" clip-rule="evenodd" d="M23.009,56.955c0.223,2.711-0.844,4.873-3.298,5.907  c-2.602,1.095-4.785-0.288-6.373-2.243c-2.035-2.506-3.362-5.387-2.407-8.749c1.258-4.428,5.612-5.746,8.71-2.37  c1.798,1.958,2.784,4.662,4.135,7.029C23.521,56.671,23.265,56.813,23.009,56.955z"></path><path xmlns="http://www.w3.org/2000/svg" fill-rule="evenodd" clip-rule="evenodd" d="M75.446,15.578c2.298,1.132,4.353,1.767,5.882,3.037  c0.915,0.759,1.645,2.734,1.288,3.751c-0.365,1.041-2.194,2.245-3.323,2.188c-1.999-0.1-4.194-0.742-5.84-1.851  c-1.147-0.772-2.348-2.96-2.011-4.048C71.828,17.411,73.889,16.688,75.446,15.578z"></path><path xmlns="http://www.w3.org/2000/svg" fill-rule="evenodd" clip-rule="evenodd" d="M16.589,70.245c-0.965,1.368-1.612,3.255-2.71,3.568  c-1.08,0.307-3.025-0.646-3.847-1.653c-1.048-1.285-1.825-3.18-1.823-4.81c0.002-1.304,1.066-3.109,2.191-3.732  c0.768-0.426,2.856,0.455,3.629,1.366C15.165,66.325,15.651,68.213,16.589,70.245z"></path><path xmlns="http://www.w3.org/2000/svg" fill-rule="evenodd" clip-rule="evenodd" d="M45.207,17.008c-1.104-0.705-2.2-1.406-3.298-2.105  c1.098-0.819,2.091-2.043,3.317-2.354c1.657-0.42,3.54-0.396,5.239-0.088c1.749,0.317,2.037,1.67,0.427,2.551  C49.295,15.886,47.424,16.257,45.207,17.008z"></path><path xmlns="http://www.w3.org/2000/svg" fill-rule="evenodd" clip-rule="evenodd" d="M10.555,41.71c-0.106,3.194-2.276,6.416-3.938,6.2  c-0.639-0.083-1.572-1.251-1.612-1.966c-0.132-2.368,2.467-5.919,4.086-5.665C9.78,40.388,10.317,41.462,10.555,41.71z"></path><path xmlns="http://www.w3.org/2000/svg" fill-rule="evenodd" clip-rule="evenodd" d="M19.22,28.43c-0.552-1.517-1.03-2.235-0.991-2.923  c0.028-0.5,0.647-1.162,1.165-1.403c1.829-0.85,3.725-1.549,5.596-2.307c0.114,0.565,0.515,1.45,0.297,1.645  C23.54,25.011,21.674,26.448,19.22,28.43z"></path></g><g id="SvgjsG1193" featurekey="nameFeature-0" transform="matrix(0.9718976562750564,0,0,0.9718976562750564,95.0895793212552,15.107182673726587)" fill="url(#SvgjsLinearGradient1201)"><path d="M6.4 33.92 c-2.56 -0.08 -2.72 -0.16 -2.84 -2.72 c-0.12 -3.68 -0.2 -7.32 -0.32 -11 c-0.04 -1.96 -0.2 -3.88 -0.24 -5.84 c-0.04 -1.08 0.12 -1.28 1.2 -1.32 c0.8 -0.04 1.64 -0.04 2.44 0 c0.92 0.08 1.16 0.36 1.16 1.28 l0.28 18.12 c0 0.08 0.04 0.16 0.04 0.2 c1.92 0 3.8 0 5.68 -0.04 c0.24 0 0.52 -0.16 0.64 -0.36 c0.36 -0.36 0.6 -0.8 0.88 -1.2 c0.2 -0.36 0.32 -0.72 0.52 -1.08 c0.52 -0.84 1.16 -1.12 1.84 -0.8 c0.64 0.28 0.92 1.08 0.68 1.92 c-0.2 0.8 -0.64 1.48 -1.4 1.84 c-0.84 0.4 -1.76 0.8 -2.64 0.84 c-2.64 0.16 -5.28 0.24 -7.92 0.16 z M5.16 32.68 c1.24 0.48 1.76 0.12 1.8 -1.12 l0.04 -0.48 c-0.12 -5.52 -0.2 -11 -0.28 -16.48 c0 -0.12 -0.08 -0.24 -0.12 -0.4 l-2.44 0 c0 0.76 -0.04 1.4 0 2.08 l0.44 14 c0.04 0.6 0.08 1.2 0.2 1.8 c0 0.24 0.2 0.52 0.36 0.6 z M16.12 31.96 c0.2 0.12 0.92 -0.32 1.04 -0.48 s0.16 -0.36 0.2 -0.6 c0 -0.16 0 -0.32 -0.04 -0.48 c-0.2 -0.44 -0.68 -0.2 -0.92 0.08 c-0.24 0.32 -0.32 0.76 -0.36 1.16 c-0.04 0.2 0 0.32 0.08 0.32 z M37.056 33.24 c-3.6 0.32 -6.36 -0.88 -8.32 -3.76 c-1.12 -1.64 -1.88 -3.36 -2.12 -5.24 c-0.2 -1.88 0.36 -3.64 1.2 -5.28 c1.04 -2.12 2.64 -3.8 4.6 -5.2 c2.44 -1.72 6.28 -1.88 8.92 0.08 c3.48 2.56 4.52 4.36 4.56 8.92 c-0.12 2.12 -0.76 4.68 -2.4 6.96 c-1.52 2.16 -3.68 3.28 -6.44 3.52 z M37.536 32.12 c1.96 -0.28 3.56 -1.08 4.72 -2.56 c1.72 -2.2 2.36 -4.68 2.56 -7.36 c-0.04 -0.56 -0.08 -1.16 -0.16 -1.72 c-0.4 -3.12 -3.32 -6.16 -6.48 -6.88 c-0.6 -0.16 -1.04 -0.04 -1.44 0.4 c-1.4 1.56 -2.72 3.2 -3.64 5.08 c-0.64 1.36 -0.96 2.8 -0.72 4.32 c0.08 0.48 0.16 0.96 0.28 1.44 c0.64 2.36 1.68 4.52 3.12 6.56 c0.44 0.64 0.96 0.88 1.76 0.72 z M34.936 32.2 c-0.16 -0.28 -0.28 -0.44 -0.36 -0.56 c-1.24 -1.84 -2.2 -3.84 -2.84 -5.92 c-0.68 -2.16 -0.92 -4.36 0.12 -6.48 c0.68 -1.36 1.56 -2.64 2.4 -3.96 c0.32 -0.52 0.76 -1 1.16 -1.52 c-0.04 -0.04 -0.04 -0.08 -0.08 -0.16 c-0.48 0.16 -1 0.24 -1.36 0.52 c-1.08 0.76 -2.2 1.52 -3.12 2.48 c-2 2.04 -3.24 4.48 -3.08 7.32 c0.12 2.68 1.48 4.88 3.48 6.76 c0.92 0.88 2.16 1.32 3.68 1.52 z M64.672 33.72 c-0.52 0 -1 0 -1.52 -0.04 c-0.88 -0.08 -1.24 -0.44 -1.28 -1.36 c-0.04 -1.48 -0.08 -2.92 -0.16 -4.4 l-0.56 -11.04 c-0.08 -0.88 -0.04 -1.76 -0.04 -2.72 c-1.04 -0.04 -2.04 -0.12 -3.08 -0.16 l-2.28 0 c-0.36 0 -0.76 -0.04 -0.76 -0.56 c0 -0.48 0.4 -0.56 0.8 -0.56 c1.88 0.04 3.76 0.08 5.64 0.08 c3.24 -0.04 6.48 -0.08 9.72 -0.16 c0.2 0 0.48 -0.04 0.6 0.08 c0.24 0.16 0.48 0.44 0.52 0.72 c0.04 0.4 -0.36 0.36 -0.64 0.36 l-5.52 0.12 c0.08 1.84 0.2 3.56 0.28 5.24 c0.12 4.08 0.24 8.12 0.32 12.16 c0.04 2.16 -0.32 2.2 -2.04 2.24 z M63.112 32.56 l2.52 0 c-0.04 -6.24 -0.2 -12.36 -0.64 -18.52 l-2.68 0 c-0.16 1.4 0.52 17.56 0.8 18.52 z M98.48800000000001 37.24 c-0.88 -0.08 -1.68 -0.32 -2.44 -0.72 c-1.8 -1 -3.92 -3.52 -5 -5.4 c-0.64 -1.12 -1.2 -2.28 -1.84 -3.36 c-0.28 -0.56 -0.64 -1.08 -1 -1.6 l-0.16 0.04 c-0.04 0.32 -0.08 0.6 -0.08 0.88 c-0.08 2.36 -0.16 1.6 -0.2 3.96 c-0.04 0.4 -0.04 0.84 -0.08 1.24 c-0.08 0.72 -0.4 1.12 -1.04 1.16 c-0.84 0.08 -1.72 0.12 -2.56 0.04 c-0.8 -0.04 -1.16 -0.48 -1.2 -1.4 c-0.24 -5.24 -0.56 -7.4 -0.44 -12.68 c0.04 -1.68 -0.08 -3.32 -0.08 -5 c-0.04 -1 0 -1.04 0.92 -1.16 c0.96 -0.16 1.96 -0.32 2.92 -0.44 c1.12 -0.12 1.56 0.32 1.6 1.56 l0 1.32 l0.6 -0.56 c1.4 -1.48 3.04 -2.36 4.92 -2.64 c2.96 -0.48 5.36 1.52 6 4.92 c0.88 4.52 -1.72 8.72 -5.92 9.56 c-0.52 0.12 -1 0.2 -1.52 0.2 s-1 -0.08 -1.64 -0.12 c0.76 1.4 1.48 2.8 2.32 4.12 c0.44 0.72 0.92 1.4 1.44 2.04 c0.84 0.96 1.84 1.8 3 2.32 c0.44 0.2 0.96 0.36 1.48 0.4 c0.16 0.04 0.32 0 0.48 0 c0.04 -0.08 0.12 -0.12 0.16 -0.2 l0.72 -1.12 c0.24 -0.36 0.48 -0.72 0.8 -1.04 s0.76 -0.44 1.24 -0.4 c0.96 0.08 1.44 1.04 0.96 1.92 s-1.36 1.48 -2.32 1.84 c-0.68 0.28 -1.32 0.36 -2.04 0.32 z M93.40800000000002 25.64 c3.2 -0.76 5.2 -3.76 4.88 -7.24 c-0.32 -3.56 -2.68 -5.36 -5.8 -4.4 c-1.36 0.4 -2.48 1.24 -3.52 2.24 c-0.72 0.68 -1.12 1.48 -1.08 2.56 l0 2.12 c0.08 0.88 0.08 1.72 0.16 2.6 c0.04 0.24 0.08 0.56 0.24 0.68 c0.52 0.48 1.04 0.96 1.64 1.28 c1.12 0.52 2.32 0.44 3.48 0.16 z M84.12800000000001 32.16 l2.36 0 c0.4 -7.08 0.36 -10.96 0.12 -18.04 l-3.12 0.44 c0.16 6.96 0.04 10.72 0.64 17.6 z M100.36800000000001 35.88 c0.84 -0.28 1.36 -0.76 1.72 -1.52 c-0.76 -0.28 -1.2 0.08 -1.72 1.52 z M139.96 33.24 c-3.6 0.32 -6.36 -0.88 -8.32 -3.76 c-1.12 -1.64 -1.88 -3.36 -2.12 -5.24 c-0.2 -1.88 0.36 -3.64 1.2 -5.28 c1.04 -2.12 2.64 -3.8 4.6 -5.2 c2.44 -1.72 6.28 -1.88 8.92 0.08 c3.48 2.56 4.52 4.36 4.56 8.92 c-0.12 2.12 -0.76 4.68 -2.4 6.96 c-1.52 2.16 -3.68 3.28 -6.44 3.52 z M140.44000000000003 32.12 c1.96 -0.28 3.56 -1.08 4.72 -2.56 c1.72 -2.2 2.36 -4.68 2.56 -7.36 c-0.04 -0.56 -0.08 -1.16 -0.16 -1.72 c-0.4 -3.12 -3.32 -6.16 -6.48 -6.88 c-0.6 -0.16 -1.04 -0.04 -1.44 0.4 c-1.4 1.56 -2.72 3.2 -3.64 5.08 c-0.64 1.36 -0.96 2.8 -0.72 4.32 c0.08 0.48 0.16 0.96 0.28 1.44 c0.64 2.36 1.68 4.52 3.12 6.56 c0.44 0.64 0.96 0.88 1.76 0.72 z M137.84000000000003 32.2 c-0.16 -0.28 -0.28 -0.44 -0.36 -0.56 c-1.24 -1.84 -2.2 -3.84 -2.84 -5.92 c-0.68 -2.16 -0.92 -4.36 0.12 -6.48 c0.68 -1.36 1.56 -2.64 2.4 -3.96 c0.32 -0.52 0.76 -1 1.16 -1.52 c-0.04 -0.04 -0.04 -0.08 -0.08 -0.16 c-0.48 0.16 -1 0.24 -1.36 0.52 c-1.08 0.76 -2.2 1.52 -3.12 2.48 c-2 2.04 -3.24 4.48 -3.08 7.32 c0.12 2.68 1.48 4.88 3.48 6.76 c0.92 0.88 2.16 1.32 3.68 1.52 z M167.57600000000002 33.72 c-0.52 0 -1 0 -1.52 -0.04 c-0.88 -0.08 -1.24 -0.44 -1.28 -1.36 c-0.04 -1.48 -0.08 -2.92 -0.16 -4.4 l-0.56 -11.04 c-0.08 -0.88 -0.04 -1.76 -0.04 -2.72 c-1.04 -0.04 -2.04 -0.12 -3.08 -0.16 l-2.28 0 c-0.36 0 -0.76 -0.04 -0.76 -0.56 c0 -0.48 0.4 -0.56 0.8 -0.56 c1.88 0.04 3.76 0.08 5.64 0.08 c3.24 -0.04 6.48 -0.08 9.72 -0.16 c0.2 0 0.48 -0.04 0.6 0.08 c0.24 0.16 0.48 0.44 0.52 0.72 c0.04 0.4 -0.36 0.36 -0.64 0.36 l-5.52 0.12 c0.08 1.84 0.2 3.56 0.28 5.24 c0.12 4.08 0.24 8.12 0.32 12.16 c0.04 2.16 -0.32 2.2 -2.04 2.24 z M166.01600000000002 32.56 l2.52 0 c-0.04 -6.24 -0.2 -12.36 -0.64 -18.52 l-2.68 0 c-0.16 1.4 0.52 17.56 0.8 18.52 z M203.67200000000003 37.32 c-0.44 -0.08 -0.96 -0.2 -1.32 -0.44 c-0.8 -0.56 -1.48 -1.36 -2 -2.2 c-0.48 -0.76 -0.6 -1.68 -0.68 -2.56 c-0.08 -1.16 -0.08 -2.28 -0.08 -3.44 l0 -1.16 l-8.68 0 c0 1 -0.04 2 0 3.04 c0 0.6 0.08 1.2 0.08 1.8 c0 0.72 -0.2 1 -0.92 1.08 c-1 0.16 -1.96 0.24 -2.96 0.32 s-1.44 -0.24 -1.56 -1.24 c-0.08 -0.84 -0.16 -1.68 -0.12 -2.48 c0.28 -4.4 0.04 -8.8 -0.12 -13.2 c-0.04 -1.08 -0.04 -2.16 -0.04 -3.2 c0.04 -0.88 0.32 -1.16 1.2 -1.24 c0.92 -0.04 1.88 -0.12 2.8 -0.16 s1.2 0.28 1.2 1.16 c0 2.88 0 5.72 0.08 8.56 c0 1.4 0.12 2.8 0.2 4.36 c2.96 -0.04 5.84 0.56 8.8 -0.04 c0 -0.32 0.04 -0.6 0.04 -0.88 l-0.12 -11.6 c0 -0.32 0 -0.64 0.08 -0.92 c0.08 -0.2 0.32 -0.4 0.48 -0.4 s0.4 0.2 0.48 0.4 s0.04 0.44 0.08 0.68 l0.12 15.28 c0 0.88 0.12 1.76 0.28 2.64 c0.12 0.6 0.2 1.28 0.48 1.88 c0.2 0.4 0.6 0.84 1.08 0.96 c0.64 0.2 1.24 0.56 1.8 0.92 c0.44 0.28 0.72 0.72 0.52 1.28 c-0.2 0.52 -0.64 0.84 -1.2 0.8 z M186.67200000000003 32.72 c1.12 -0.16 2.12 -0.28 3.16 -0.4 c-0.2 -6.36 -0.44 -12.64 -0.64 -19 l-1.84 0.12 c-0.28 0.04 -0.56 0.08 -0.92 0.12 z M203.67200000000003 36.6 c0.44 -0.04 0.44 -0.68 0.12 -0.88 c-0.4 -0.32 -0.92 -0.28 -1.4 -0.32 c-0.04 0 -0.4 -0.08 -0.44 0 s0.16 0.2 0.56 0.56 c0.12 0.16 0.24 0.36 0.4 0.48 c0.2 0.12 0.52 0.2 0.76 0.16 z M216.16800000000003 34 c-1.28 0.04 -1.76 -0.32 -1.8 -1.64 c-0.04 -3.28 0 -8.64 -0.04 -11.92 c-0.04 -2.36 -0.2 -4.24 -0.24 -6.6 c0 -0.96 0.2 -1.2 1.2 -1.24 c0.64 0 1.32 -0.04 1.92 0.12 c1.48 0.32 2.88 0.12 4.32 0 c1.68 -0.12 3.4 -0.16 5.08 -0.24 c0.32 0 0.64 0.04 0.92 0.16 c0.16 0.08 0.4 0.32 0.36 0.48 c0 0.2 -0.24 0.4 -0.44 0.48 c-0.28 0.04 -0.6 0 -0.92 0 l-7.36 0.4 c-0.04 0 -0.08 0.08 -0.16 0.12 c0.12 4.2 0.36 7.96 0.52 12.32 l3 -0.24 c0.56 -0.04 1.12 -0.12 1.72 -0.16 c0.4 -0.04 0.84 -0.08 0.92 0.44 c0.04 0.52 -0.4 0.6 -0.8 0.64 l-4.32 0.36 c-0.12 0 -0.24 0.04 -0.44 0.08 c0.04 0.96 0.04 3.96 0.08 4.96 l3.88 0 c1.04 0 2.08 0 3.12 0.04 c0.36 0 0.72 0.04 0.72 0.48 s-0.36 0.56 -0.72 0.56 l-1.24 0.04 c-3.12 0.12 -6.2 0.2 -9.28 0.36 z M215.48800000000003 32.84 l3.08 -0.4 c-0.08 -1.36 -0.08 -4.6 -0.12 -5.8 c-0.16 -3.6 -0.32 -6.72 -0.44 -10.36 c-0.04 -0.6 -0.08 -1.24 -0.16 -1.84 c-0.04 -0.24 -0.24 -0.56 -0.36 -0.6 c-0.72 -0.08 -1.44 -0.12 -2.32 -0.16 c0.08 3.88 0.2 11.24 0.32 19.16 z M241.38400000000004 33.92 c-2.56 -0.08 -2.72 -0.16 -2.84 -2.72 c-0.12 -3.68 -0.2 -7.32 -0.32 -11 c-0.04 -1.96 -0.2 -3.88 -0.24 -5.84 c-0.04 -1.08 0.12 -1.28 1.2 -1.32 c0.8 -0.04 1.64 -0.04 2.44 0 c0.92 0.08 1.16 0.36 1.16 1.28 l0.28 18.12 c0 0.08 0.04 0.16 0.04 0.2 c1.92 0 3.8 0 5.68 -0.04 c0.24 0 0.52 -0.16 0.64 -0.36 c0.36 -0.36 0.6 -0.8 0.88 -1.2 c0.2 -0.36 0.32 -0.72 0.52 -1.08 c0.52 -0.84 1.16 -1.12 1.84 -0.8 c0.64 0.28 0.92 1.08 0.68 1.92 c-0.2 0.8 -0.64 1.48 -1.4 1.84 c-0.84 0.4 -1.76 0.8 -2.64 0.84 c-2.64 0.16 -5.28 0.24 -7.92 0.16 z M240.14400000000003 32.68 c1.24 0.48 1.76 0.12 1.8 -1.12 l0.04 -0.48 c-0.12 -5.52 -0.2 -11 -0.28 -16.48 c0 -0.12 -0.08 -0.24 -0.12 -0.4 l-2.44 0 c0 0.76 -0.04 1.4 0 2.08 l0.44 14 c0.04 0.6 0.08 1.2 0.2 1.8 c0 0.24 0.2 0.52 0.36 0.6 z M251.10400000000004 31.96 c0.2 0.12 0.92 -0.32 1.04 -0.48 s0.16 -0.36 0.2 -0.6 c0 -0.16 0 -0.32 -0.04 -0.48 c-0.2 -0.44 -0.68 -0.2 -0.92 0.08 c-0.24 0.32 -0.32 0.76 -0.36 1.16 c-0.04 0.2 0 0.32 0.08 0.32 z M265.96000000000004 33.92 c-2.56 -0.08 -2.72 -0.16 -2.84 -2.72 c-0.12 -3.68 -0.2 -7.32 -0.32 -11 c-0.04 -1.96 -0.2 -3.88 -0.24 -5.84 c-0.04 -1.08 0.12 -1.28 1.2 -1.32 c0.8 -0.04 1.64 -0.04 2.44 0 c0.92 0.08 1.16 0.36 1.16 1.28 l0.28 18.12 c0 0.08 0.04 0.16 0.04 0.2 c1.92 0 3.8 0 5.68 -0.04 c0.24 0 0.52 -0.16 0.64 -0.36 c0.36 -0.36 0.6 -0.8 0.88 -1.2 c0.2 -0.36 0.32 -0.72 0.52 -1.08 c0.52 -0.84 1.16 -1.12 1.84 -0.8 c0.64 0.28 0.92 1.08 0.68 1.92 c-0.2 0.8 -0.64 1.48 -1.4 1.84 c-0.84 0.4 -1.76 0.8 -2.64 0.84 c-2.64 0.16 -5.28 0.24 -7.92 0.16 z M264.7200000000001 32.68 c1.24 0.48 1.76 0.12 1.8 -1.12 l0.04 -0.48 c-0.12 -5.52 -0.2 -11 -0.28 -16.48 c0 -0.12 -0.08 -0.24 -0.12 -0.4 l-2.44 0 c0 0.76 -0.04 1.4 0 2.08 l0.44 14 c0.04 0.6 0.08 1.2 0.2 1.8 c0 0.24 0.2 0.52 0.36 0.6 z M275.68000000000006 31.96 c0.2 0.12 0.92 -0.32 1.04 -0.48 s0.16 -0.36 0.2 -0.6 c0 -0.16 0 -0.32 -0.04 -0.48 c-0.2 -0.44 -0.68 -0.2 -0.92 0.08 c-0.24 0.32 -0.32 0.76 -0.36 1.16 c-0.04 0.2 0 0.32 0.08 0.32 z M296.6160000000001 33.24 c-3.6 0.32 -6.36 -0.88 -8.32 -3.76 c-1.12 -1.64 -1.88 -3.36 -2.12 -5.24 c-0.2 -1.88 0.36 -3.64 1.2 -5.28 c1.04 -2.12 2.64 -3.8 4.6 -5.2 c2.44 -1.72 6.28 -1.88 8.92 0.08 c3.48 2.56 4.52 4.36 4.56 8.92 c-0.12 2.12 -0.76 4.68 -2.4 6.96 c-1.52 2.16 -3.68 3.28 -6.44 3.52 z M297.09600000000006 32.12 c1.96 -0.28 3.56 -1.08 4.72 -2.56 c1.72 -2.2 2.36 -4.68 2.56 -7.36 c-0.04 -0.56 -0.08 -1.16 -0.16 -1.72 c-0.4 -3.12 -3.32 -6.16 -6.48 -6.88 c-0.6 -0.16 -1.04 -0.04 -1.44 0.4 c-1.4 1.56 -2.72 3.2 -3.64 5.08 c-0.64 1.36 -0.96 2.8 -0.72 4.32 c0.08 0.48 0.16 0.96 0.28 1.44 c0.64 2.36 1.68 4.52 3.12 6.56 c0.44 0.64 0.96 0.88 1.76 0.72 z M294.4960000000001 32.2 c-0.16 -0.28 -0.28 -0.44 -0.36 -0.56 c-1.24 -1.84 -2.2 -3.84 -2.84 -5.92 c-0.68 -2.16 -0.92 -4.36 0.12 -6.48 c0.68 -1.36 1.56 -2.64 2.4 -3.96 c0.32 -0.52 0.76 -1 1.16 -1.52 c-0.04 -0.04 -0.04 -0.08 -0.08 -0.16 c-0.48 0.16 -1 0.24 -1.36 0.52 c-1.08 0.76 -2.2 1.52 -3.12 2.48 c-2 2.04 -3.24 4.48 -3.08 7.32 c0.12 2.68 1.48 4.88 3.48 6.76 c0.92 0.88 2.16 1.32 3.68 1.52 z"></path></g></svg>