<svg width="320" height="128.81648852204688" viewBox="0 0 320 128.81648852204688" ><defs id="SvgjsDefs1487"></defs><g id="SvgjsG1488" featurekey="symbolFeature-0" transform="matrix(1.1989051867705158,0,0,1.1989051867705158,-9.740439204031304,5.058317656273541)" fill="#ffe98a"><g xmlns="http://www.w3.org/2000/svg"><g><defs><path id="a" d="M29.17,23.548c-1.182-0.451-2.395-0.836-3.646-1.145l0,0c-0.094-0.027-0.19-0.044-0.28-0.056l0,0     c-0.175-0.033-0.343-0.056-0.495-0.06l0,0c-0.238-0.012-0.435,0.011-0.598,0.054l0,0c-0.166,0.04-0.286,0.106-0.354,0.189l0,0     c-0.071,0.09-0.088,0.197-0.041,0.321l0,0c0.31,0.814,0.603,1.658,0.884,2.513l0,0c0.048,0.146,0.156,0.299,0.31,0.457l0,0     c0.15,0.151,0.349,0.309,0.58,0.459l0,0c0.229,0.151,0.484,0.295,0.76,0.421l0,0c0.272,0.127,0.559,0.238,0.846,0.329l0,0     c1.716,0.513,3.384,1.131,5.016,1.841l0,0c0.036,0.014,0.072,0.028,0.109,0.045l0,0c0.211,0.084,0.397,0.143,0.562,0.181l0,0     c0.191,0.033,0.351,0.042,0.477,0.015l0,0c0.119-0.03,0.205-0.086,0.242-0.177l0,0c0.036-0.094,0.033-0.215-0.022-0.365l0,0     c-0.336-0.905-0.67-1.818-1.016-2.733l0,0c-0.051-0.138-0.148-0.297-0.278-0.459l0,0c-0.132-0.157-0.298-0.327-0.486-0.493l0,0     c-0.188-0.158-0.401-0.321-0.623-0.46l0,0c-0.223-0.146-0.467-0.271-0.71-0.378l0,0c-0.336-0.144-0.67-0.28-1.011-0.412l0,0     L29.17,23.548z M35.024,26.471c-0.164-0.062-0.303-0.083-0.41-0.073l0,0c-0.105,0.008-0.178,0.051-0.21,0.127l0,0     c-0.035,0.08-0.027,0.192,0.027,0.329l0,0c0.356,0.92,0.702,1.837,1.052,2.739l0,0c0.059,0.15,0.159,0.323,0.294,0.499l0,0     c0.134,0.181,0.302,0.365,0.488,0.548l0,0c0.186,0.187,0.392,0.366,0.604,0.531l0,0c0.213,0.169,0.434,0.319,0.649,0.445l0,0     c1.289,0.759,2.554,1.578,3.795,2.452l0,0c0.025,0.017,0.052,0.034,0.081,0.054l0,0c0.157,0.107,0.299,0.187,0.415,0.238l0,0     c0.139,0.062,0.25,0.089,0.326,0.081l0,0c0.078-0.006,0.12-0.051,0.131-0.127l0,0c0.01-0.078-0.019-0.194-0.085-0.34l0,0     c-0.398-0.885-0.794-1.782-1.195-2.703l0,0c-0.06-0.141-0.153-0.302-0.271-0.482l0,0c-0.119-0.168-0.258-0.354-0.415-0.541l0,0     c-0.161-0.183-0.334-0.365-0.514-0.539l0,0c-0.182-0.174-0.366-0.333-0.548-0.469l0,0c-1.193-0.893-2.409-1.722-3.651-2.493l0,0     c-0.074-0.042-0.141-0.078-0.207-0.114l0,0c-0.101-0.057-0.195-0.101-0.284-0.135l0,0C35.074,26.489,35.046,26.479,35.024,26.471      M20.155,21.866c-0.249-0.083-0.534-0.143-0.845-0.186l0,0c-0.31-0.036-0.648-0.051-0.998-0.037l0,0     c-2.264,0.089-4.655,0.481-7.248,1.356l0,0c-0.167,0.06-0.329,0.118-0.484,0.179l0,0c-0.261,0.099-0.504,0.202-0.736,0.31l0,0     c-0.373,0.171-0.704,0.342-0.972,0.501l0,0c-0.274,0.156-0.481,0.303-0.604,0.413l0,0c-0.069,0.062-0.116,0.116-0.135,0.157l0,0     L8.13,24.57c-0.011,0.032-0.006,0.057,0.018,0.075l0,0c0.362,0.294,0.694,0.662,1.001,1.092l0,0     c0.051,0.076,0.196,0.117,0.408,0.143l0,0c0.217,0.021,0.503,0.022,0.826,0.019l0,0c0.331-0.012,0.706-0.036,1.102-0.065l0,0     c0.395-0.037,0.814-0.08,1.235-0.138l0,0c2.503-0.338,4.866-0.336,7.131-0.123l0,0c0.061,0.009,0.116,0.013,0.175,0.018l0,0     c0.277,0.021,0.538,0.021,0.768,0.012l0,0c0.277-0.02,0.518-0.061,0.707-0.127l0,0c0.188-0.056,0.325-0.145,0.405-0.253l0,0     c0.081-0.1,0.106-0.224,0.058-0.362l0,0c-0.275-0.817-0.563-1.611-0.866-2.378l0,0c-0.046-0.116-0.157-0.228-0.32-0.332l0,0     c-0.114-0.078-0.253-0.151-0.417-0.216l0,0C20.294,21.909,20.228,21.889,20.155,21.866 M42.515,32.068     c-0.067-0.005-0.109,0.031-0.117,0.097l0,0c-0.009,0.069,0.017,0.177,0.077,0.315l0,0c0.41,0.914,0.818,1.81,1.227,2.682l0,0     c0.07,0.146,0.169,0.313,0.294,0.494l0,0c0.128,0.179,0.272,0.367,0.435,0.559l0,0c0.158,0.186,0.332,0.373,0.504,0.544l0,0     c0.175,0.18,0.354,0.339,0.522,0.48l0,0c1.012,0.837,2.01,1.703,3.001,2.595l0,0c0.019,0.018,0.04,0.04,0.061,0.062l0,0     c0.126,0.105,0.234,0.189,0.322,0.247l0,0c0.1,0.069,0.181,0.105,0.226,0.098l0,0c0.052,0,0.068-0.035,0.058-0.105l0,0     c-0.01-0.07-0.056-0.177-0.133-0.32l0,0c-0.447-0.831-0.889-1.69-1.335-2.578l0,0c-0.067-0.133-0.161-0.293-0.273-0.466l0,0     c-0.11-0.17-0.24-0.352-0.382-0.539l0,0c-0.138-0.181-0.287-0.371-0.435-0.541l0,0c-0.151-0.178-0.307-0.345-0.452-0.488l0,0     c-0.951-0.927-1.909-1.827-2.887-2.697l0,0c-0.049-0.043-0.097-0.082-0.143-0.122l0,0c-0.105-0.083-0.202-0.152-0.284-0.204l0,0     c-0.062-0.036-0.117-0.064-0.168-0.085l0,0C42.59,32.076,42.551,32.069,42.515,32.068 M27.57,28.39     c-0.02-0.008-0.042-0.014-0.062-0.019l0,0c-0.267-0.074-0.515-0.121-0.735-0.13l0,0c-0.24-0.015-0.449,0.011-0.617,0.068l0,0     c-0.167,0.056-0.292,0.14-0.358,0.259l0,0c-0.072,0.116-0.087,0.262-0.039,0.43l0,0c0.327,1.122,0.642,2.252,0.95,3.379l0,0     c0.05,0.187,0.168,0.389,0.332,0.583l0,0c0.163,0.198,0.374,0.396,0.621,0.571l0,0c0.243,0.182,0.519,0.348,0.809,0.484l0,0     c0.26,0.128,0.535,0.238,0.81,0.312l0,0c0.031,0.01,0.06,0.019,0.093,0.025l0,0c1.81,0.48,3.596,1.024,5.345,1.651l0,0     c0.27,0.104,0.508,0.154,0.713,0.175l0,0c0.201,0.019,0.364,0,0.491-0.051l0,0c0.121-0.053,0.203-0.134,0.236-0.252l0,0     c0.033-0.112,0.02-0.262-0.053-0.439l0,0c-0.406-1.036-0.814-2.101-1.222-3.191l0,0c-0.064-0.163-0.174-0.346-0.317-0.531l0,0     c-0.143-0.188-0.323-0.378-0.521-0.555l0,0c-0.203-0.187-0.429-0.358-0.669-0.516l0,0c-0.234-0.156-0.487-0.293-0.736-0.405l0,0     c-0.56-0.236-1.123-0.468-1.689-0.685l0,0C29.842,29.124,28.716,28.736,27.57,28.39 M37.479,32.693     c-0.166-0.047-0.309-0.055-0.415-0.031l0,0c-0.105,0.023-0.178,0.09-0.208,0.182l0,0c-0.025,0.097-0.012,0.232,0.054,0.39l0,0     c0.429,1.074,0.859,2.122,1.292,3.132l0,0c0.071,0.175,0.191,0.36,0.343,0.557l0,0c0.149,0.186,0.336,0.379,0.543,0.566l0,0     c0.205,0.188,0.43,0.362,0.663,0.526l0,0c0.217,0.149,0.441,0.282,0.655,0.393l0,0c0.013,0.008,0.029,0.014,0.046,0.022l0,0     c1.366,0.67,2.709,1.402,4.032,2.19l0,0c0.201,0.123,0.376,0.208,0.517,0.257l0,0c0.142,0.045,0.252,0.062,0.323,0.037l0,0     c0.075-0.025,0.11-0.083,0.111-0.17l0,0c-0.004-0.094-0.048-0.214-0.133-0.374l0,0c-0.492-0.937-0.993-1.905-1.483-2.913l0,0     c-0.074-0.153-0.183-0.329-0.317-0.51l0,0c-0.134-0.183-0.291-0.376-0.463-0.563l0,0c-0.171-0.188-0.359-0.38-0.55-0.549l0,0     c-0.196-0.175-0.394-0.328-0.583-0.463l0,0c-1.255-0.862-2.539-1.668-3.843-2.417l0,0c-0.025-0.015-0.051-0.033-0.08-0.046l0,0     c-0.122-0.067-0.239-0.121-0.349-0.163l0,0C37.578,32.725,37.531,32.708,37.479,32.693 M21.237,27.049     c-0.315-0.104-0.653-0.18-1.001-0.223l0,0c-2.275-0.272-4.634-0.358-7.12-0.148l0,0c-0.052,0.009-0.101,0.012-0.152,0.016l0,0     c-0.363,0.036-0.708,0.099-1.021,0.18l0,0c-0.361,0.086-0.68,0.198-0.945,0.315l0,0c-0.259,0.116-0.461,0.239-0.585,0.361l0,0     c-0.127,0.125-0.175,0.248-0.131,0.365l0,0c0.309,0.773,0.582,1.636,0.817,2.571l0,0c0.039,0.163,0.167,0.312,0.369,0.457l0,0     c0.195,0.151,0.463,0.289,0.775,0.414l0,0c0.308,0.128,0.67,0.237,1.053,0.326l0,0c0.348,0.079,0.711,0.138,1.086,0.171l0,0     c0.039,0.005,0.082,0.01,0.125,0.01l0,0c2.453,0.185,4.854,0.487,7.214,0.872l0,0c0.356,0.059,0.689,0.074,0.98,0.054l0,0     c0.286-0.018,0.531-0.078,0.728-0.165l0,0c0.199-0.094,0.345-0.211,0.426-0.359l0,0c0.086-0.147,0.112-0.319,0.059-0.511l0,0     c-0.281-1.132-0.572-2.262-0.884-3.367l0,0c-0.044-0.172-0.159-0.336-0.32-0.504l0,0c-0.162-0.167-0.374-0.324-0.625-0.466l0,0     c-0.176-0.102-0.371-0.197-0.581-0.278l0,0C21.421,27.107,21.33,27.074,21.237,27.049 M48.799,38.062     c-0.045-0.005-0.062,0.027-0.053,0.09l0,0c0.01,0.064,0.047,0.166,0.113,0.3l0,0c0.454,0.875,0.909,1.724,1.368,2.548l0,0     c0.076,0.137,0.178,0.299,0.298,0.466l0,0c0.122,0.175,0.254,0.353,0.401,0.531l0,0c0.144,0.181,0.292,0.359,0.446,0.526l0,0     c0.153,0.167,0.298,0.322,0.438,0.457l0,0c0.83,0.805,1.66,1.614,2.486,2.428l0,0c0.013,0.007,0.026,0.021,0.037,0.028l0,0     c0.113,0.111,0.21,0.196,0.279,0.252l0,0c0.08,0.059,0.133,0.086,0.165,0.086l0,0c0.027-0.003,0.025-0.035,0.002-0.104l0,0     c-0.028-0.064-0.08-0.162-0.16-0.287l0,0c-0.49-0.77-0.978-1.568-1.462-2.392l0,0c-0.074-0.127-0.171-0.277-0.279-0.439l0,0     c-0.106-0.158-0.229-0.328-0.355-0.5l0,0c-0.131-0.175-0.264-0.346-0.397-0.51l0,0c-0.133-0.164-0.264-0.318-0.389-0.458l0,0     c-0.792-0.866-1.589-1.73-2.392-2.582l0,0c-0.029-0.033-0.061-0.064-0.093-0.097l0,0c-0.093-0.093-0.175-0.166-0.242-0.225l0,0     c-0.073-0.057-0.131-0.091-0.174-0.107l0,0C48.821,38.067,48.81,38.062,48.799,38.062 M45.372,38.121     c-0.065,0.008-0.103,0.05-0.099,0.133l0,0c-0.002,0.079,0.035,0.196,0.113,0.35l0,0c0.507,0.989,1.015,1.944,1.528,2.86l0,0     c0.083,0.155,0.203,0.32,0.349,0.507l0,0c0.142,0.181,0.311,0.371,0.485,0.556l0,0c0.181,0.183,0.371,0.363,0.562,0.532l0,0     c0.177,0.155,0.356,0.3,0.521,0.418l0,0c0.013,0.01,0.023,0.019,0.037,0.023l0,0c1.062,0.761,2.112,1.546,3.157,2.356l0,0     c0.164,0.127,0.294,0.214,0.398,0.271l0,0c0.101,0.055,0.176,0.076,0.214,0.064l0,0c0.043-0.014,0.049-0.06,0.026-0.135l0,0     c-0.023-0.074-0.083-0.189-0.175-0.33l0,0c-0.556-0.847-1.11-1.73-1.659-2.657l0,0c-0.083-0.14-0.193-0.303-0.322-0.476l0,0     c-0.129-0.171-0.27-0.354-0.427-0.536l0,0c-0.152-0.182-0.315-0.364-0.479-0.536l0,0c-0.161-0.169-0.326-0.331-0.479-0.469l0,0     c-0.998-0.876-2.004-1.732-3.027-2.556l0,0c-0.013-0.009-0.024-0.02-0.038-0.025l0,0c-0.152-0.123-0.288-0.215-0.404-0.272l0,0     c-0.035-0.021-0.071-0.037-0.107-0.052l0,0C45.475,38.121,45.415,38.112,45.372,38.121 M91.467,57.366     c-0.067,0.014-0.183,0.053-0.349,0.116l0,0c-0.166,0.062-0.374,0.146-0.623,0.246l0,0c-1.484,0.606-2.955,1.124-4.418,1.525l0,0     c-0.222,0.064-0.463,0.133-0.708,0.2l0,0c-0.243,0.069-0.489,0.141-0.724,0.204l0,0c-0.24,0.065-0.464,0.129-0.671,0.186l0,0     c-0.115,0.031-0.23,0.063-0.327,0.092l0,0c-0.07,0.022-0.136,0.039-0.195,0.059l0,0c-0.924,0.286-1.832,0.515-2.705,0.688l0,0     c-0.145,0.03-0.246,0.054-0.294,0.073l0,0c-0.056,0.021-0.062,0.035-0.025,0.047l0,0c0.039,0.012,0.122,0.018,0.247,0.018l0,0     c0.122,0,0.296-0.01,0.504-0.026l0,0c1.382-0.113,2.777-0.342,4.182-0.671l0,0c0.237-0.056,0.5-0.123,0.766-0.201l0,0     c0.27-0.08,0.545-0.169,0.816-0.261l0,0c0.264-0.092,0.523-0.188,0.751-0.279l0,0c0.105-0.042,0.201-0.084,0.29-0.119l0,0     c0.12-0.05,0.216-0.098,0.305-0.141l0,0c0.951-0.454,1.927-0.966,2.938-1.541l0,0c0.152-0.085,0.248-0.149,0.285-0.184l0,0     c0.023-0.021,0.027-0.032,0.016-0.036l0,0C91.521,57.357,91.5,57.36,91.467,57.366 M54.045,43.724     c-0.03-0.005-0.035,0.025-0.012,0.088l0,0c0.025,0.062,0.071,0.155,0.147,0.28l0,0c0.492,0.812,0.987,1.594,1.484,2.345l0,0     c0.087,0.126,0.19,0.27,0.306,0.423l0,0c0.12,0.153,0.254,0.317,0.385,0.474l0,0c0.138,0.16,0.28,0.319,0.417,0.467l0,0     c0.134,0.147,0.269,0.281,0.387,0.394l0,0c0.721,0.697,1.446,1.383,2.177,2.053l0,0c0.011,0.012,0.022,0.021,0.034,0.03l0,0     c0.1,0.089,0.175,0.155,0.235,0.197l0,0c0.067,0.05,0.105,0.068,0.118,0.059l0,0c0.015-0.004,0.005-0.037-0.032-0.095l0,0     c-0.039-0.062-0.099-0.146-0.189-0.259l0,0c-0.533-0.676-1.061-1.382-1.585-2.12l0,0c-0.081-0.117-0.179-0.247-0.286-0.387l0,0     c-0.112-0.143-0.23-0.293-0.354-0.445l0,0c-0.122-0.152-0.249-0.303-0.37-0.445l0,0c-0.124-0.144-0.244-0.279-0.349-0.395l0,0     c-0.698-0.754-1.39-1.511-2.082-2.278l0,0c-0.028-0.03-0.055-0.058-0.08-0.085l0,0c-0.079-0.084-0.149-0.151-0.2-0.201l0,0     c-0.061-0.052-0.104-0.083-0.133-0.094l0,0C54.06,43.727,54.051,43.724,54.045,43.724 M51.966,43.763     c-0.041,0.007-0.049,0.044-0.028,0.116l0,0c0.021,0.073,0.07,0.18,0.158,0.316l0,0c0.558,0.907,1.123,1.774,1.685,2.602l0,0     c0.096,0.14,0.219,0.297,0.359,0.462l0,0c0.14,0.169,0.293,0.336,0.458,0.513l0,0c0.163,0.17,0.33,0.335,0.493,0.486l0,0     c0.155,0.146,0.306,0.278,0.444,0.391l0,0c0.011,0.01,0.02,0.02,0.027,0.024l0,0c0.88,0.711,1.751,1.421,2.632,2.124l0,0     c0.135,0.107,0.246,0.188,0.323,0.235l0,0c0.078,0.044,0.129,0.062,0.151,0.056l0,0c0.019-0.014,0.009-0.054-0.033-0.121l0,0     c-0.04-0.066-0.112-0.164-0.212-0.288l0,0c-0.604-0.743-1.206-1.524-1.803-2.348l0,0c-0.089-0.126-0.203-0.271-0.331-0.428l0,0     c-0.126-0.153-0.264-0.319-0.408-0.482l0,0c-0.141-0.163-0.291-0.326-0.434-0.479l0,0c-0.146-0.155-0.286-0.301-0.417-0.421l0,0     c-0.835-0.794-1.675-1.591-2.517-2.377l0,0c-0.01-0.011-0.023-0.022-0.034-0.034l0,0c-0.123-0.111-0.233-0.2-0.312-0.256l0,0     c-0.058-0.039-0.103-0.063-0.138-0.077l0,0C52.002,43.769,51.982,43.764,51.966,43.763 M35.326,37.596     c-1.781-0.592-3.599-1.099-5.442-1.54l0,0c-0.31-0.075-0.598-0.103-0.851-0.089l0,0c-0.253,0.015-0.475,0.067-0.649,0.164l0,0     c-0.174,0.089-0.304,0.217-0.373,0.38l0,0c-0.071,0.155-0.084,0.35-0.025,0.564l0,0c0.385,1.434,0.774,2.841,1.162,4.198l0,0     c0.069,0.234,0.2,0.463,0.392,0.681l0,0c0.193,0.219,0.433,0.416,0.711,0.591l0,0c0.274,0.179,0.583,0.321,0.913,0.433l0,0     c0.211,0.071,0.428,0.129,0.648,0.168l0,0c0.118,0.025,0.237,0.037,0.355,0.05l0,0c1.992,0.194,3.956,0.46,5.884,0.836l0,0     c0.293,0.056,0.547,0.075,0.766,0.056l0,0c0.213-0.016,0.385-0.067,0.506-0.153l0,0c0.122-0.083,0.195-0.192,0.217-0.334l0,0     c0.019-0.142-0.012-0.305-0.104-0.495l0,0c-0.542-1.105-1.078-2.271-1.608-3.493l0,0c-0.08-0.187-0.21-0.381-0.373-0.573l0,0     c-0.167-0.197-0.367-0.393-0.593-0.576l0,0c-0.223-0.178-0.472-0.354-0.733-0.499l0,0c-0.219-0.13-0.45-0.24-0.68-0.325l0,0     c-0.009-0.003-0.017-0.006-0.022-0.009l0,0C35.393,37.615,35.362,37.606,35.326,37.596 M40.528,39.692     c-0.175-0.028-0.32-0.019-0.426,0.028l0,0c-0.102,0.049-0.169,0.137-0.188,0.252l0,0c-0.019,0.117,0.013,0.268,0.096,0.447l0,0     c0.558,1.177,1.123,2.297,1.69,3.363l0,0c0.093,0.179,0.242,0.367,0.42,0.555l0,0c0.183,0.188,0.398,0.375,0.633,0.546l0,0     c0.234,0.171,0.489,0.327,0.748,0.467l0,0c0.173,0.095,0.35,0.178,0.521,0.249l0,0c0.083,0.028,0.161,0.059,0.24,0.089l0,0     c1.463,0.504,2.901,1.085,4.312,1.736l0,0c0.216,0.101,0.396,0.165,0.542,0.194l0,0c0.14,0.03,0.245,0.024,0.312-0.012l0,0     c0.062-0.037,0.082-0.105,0.061-0.208l0,0c-0.018-0.099-0.082-0.229-0.193-0.388l0,0c-0.64-0.936-1.28-1.927-1.917-2.979l0,0     c-0.095-0.157-0.225-0.332-0.382-0.516l0,0c-0.154-0.187-0.333-0.371-0.528-0.557l0,0c-0.192-0.185-0.399-0.362-0.609-0.524l0,0     c-0.181-0.144-0.373-0.273-0.555-0.383l0,0c-0.023-0.018-0.048-0.028-0.071-0.044l0,0c-1.342-0.768-2.7-1.473-4.092-2.114l0,0     c-0.066-0.034-0.13-0.061-0.195-0.086l0,0C40.794,39.751,40.651,39.712,40.528,39.692 M48.939,44.503     c-0.059,0.027-0.084,0.08-0.066,0.173l0,0c0.015,0.09,0.069,0.21,0.166,0.366l0,0c0.65,1.024,1.304,1.987,1.959,2.899l0,0     c0.111,0.158,0.261,0.329,0.429,0.499l0,0c0.17,0.177,0.365,0.352,0.568,0.525l0,0c0.201,0.168,0.415,0.337,0.625,0.484l0,0     c0.148,0.106,0.293,0.205,0.438,0.293l0,0c0.053,0.034,0.11,0.066,0.161,0.096l0,0c1.118,0.64,2.226,1.307,3.335,1.992l0,0     c0.17,0.104,0.302,0.174,0.406,0.217l0,0c0.101,0.038,0.167,0.049,0.196,0.029l0,0c0.025-0.022,0.018-0.074-0.023-0.153l0,0     c-0.046-0.082-0.125-0.189-0.247-0.326l0,0c-0.702-0.813-1.401-1.679-2.098-2.599l0,0c-0.109-0.141-0.24-0.3-0.39-0.465l0,0     c-0.146-0.167-0.314-0.342-0.487-0.515l0,0c-0.175-0.175-0.352-0.341-0.532-0.498l0,0c-0.153-0.14-0.307-0.265-0.453-0.376l0,0     c-0.02-0.018-0.039-0.033-0.06-0.048l0,0c-1.056-0.788-2.121-1.554-3.196-2.293l0,0c-0.181-0.12-0.336-0.208-0.458-0.257l0,0     c-0.004-0.001-0.009-0.002-0.017-0.006l0,0C49.082,44.498,48.996,44.486,48.939,44.503 M22.291,34.574     c-0.062-0.011-0.125-0.022-0.187-0.034l0,0c-2.395-0.376-4.82-0.69-7.282-0.938l0,0c-0.417-0.038-0.814-0.036-1.167,0.011l0,0     c-0.361,0.046-0.678,0.128-0.94,0.246l0,0c-0.267,0.117-0.476,0.263-0.609,0.437l0,0c-0.133,0.171-0.192,0.373-0.16,0.594l0,0     c0.22,1.505,0.396,3.099,0.541,4.742l0,0c0.026,0.287,0.139,0.576,0.325,0.854l0,0c0.188,0.283,0.448,0.55,0.759,0.787l0,0     c0.313,0.24,0.675,0.442,1.071,0.597l0,0c0.243,0.099,0.499,0.179,0.765,0.233l0,0c0.165,0.033,0.332,0.059,0.498,0.074l0,0     c2.57,0.242,5.185,0.373,7.805,0.492l0,0c0.392,0.016,0.754-0.021,1.073-0.102l0,0c0.316-0.081,0.584-0.204,0.799-0.359l0,0     c0.211-0.153,0.366-0.336,0.454-0.551l0,0c0.086-0.208,0.108-0.437,0.049-0.685l0,0c-0.336-1.442-0.674-2.912-1.02-4.408l0,0     c-0.055-0.222-0.176-0.446-0.35-0.657l0,0c-0.173-0.216-0.397-0.418-0.668-0.598l0,0c-0.26-0.188-0.566-0.351-0.896-0.479l0,0     c-0.032-0.012-0.064-0.024-0.098-0.038l0,0C22.809,34.7,22.551,34.626,22.291,34.574 M58.639,48.645     c-0.02-0.003-0.01,0.031,0.023,0.085l0,0c0.029,0.062,0.086,0.145,0.169,0.254l0,0c0.533,0.722,1.068,1.403,1.61,2.057l0,0     c0.092,0.106,0.201,0.231,0.321,0.358l0,0c0.119,0.129,0.25,0.267,0.382,0.396l0,0c0.135,0.136,0.27,0.264,0.402,0.386l0,0     c0.127,0.117,0.25,0.225,0.361,0.314l0,0c0.658,0.541,1.321,1.07,1.998,1.565l0,0c0.009,0.009,0.023,0.017,0.033,0.026l0,0     c0.089,0.066,0.161,0.11,0.207,0.139l0,0c0.054,0.034,0.083,0.044,0.087,0.033l0,0c0.004-0.009-0.02-0.043-0.063-0.091l0,0     c-0.048-0.05-0.12-0.122-0.215-0.216l0,0c-0.581-0.552-1.155-1.141-1.722-1.764l0,0c-0.087-0.099-0.19-0.205-0.303-0.324l0,0     c-0.111-0.121-0.233-0.244-0.352-0.368l0,0c-0.125-0.126-0.245-0.25-0.363-0.368l0,0c-0.117-0.117-0.229-0.225-0.331-0.321l0,0     c-0.637-0.604-1.265-1.223-1.89-1.859l0,0c-0.024-0.023-0.047-0.047-0.071-0.068l0,0c-0.069-0.07-0.128-0.125-0.172-0.165l0,0     c-0.043-0.037-0.077-0.059-0.098-0.067l0,0C58.648,48.645,58.642,48.642,58.639,48.645 M57.491,48.917     c-0.017,0.008-0.014,0.047,0.021,0.108l0,0c0.032,0.066,0.1,0.162,0.19,0.281l0,0c0.607,0.801,1.219,1.561,1.834,2.277l0,0     c0.102,0.115,0.229,0.252,0.366,0.393l0,0c0.142,0.145,0.292,0.288,0.444,0.43l0,0c0.158,0.144,0.316,0.284,0.466,0.408l0,0     c0.142,0.119,0.274,0.224,0.396,0.313l0,0c0.01,0.011,0.02,0.017,0.027,0.023l0,0c0.771,0.573,1.544,1.121,2.331,1.647l0,0     c0.124,0.079,0.22,0.139,0.281,0.168l0,0c0.063,0.033,0.101,0.043,0.106,0.029l0,0c0.005-0.014-0.021-0.05-0.074-0.105l0,0     c-0.049-0.059-0.131-0.135-0.242-0.239l0,0c-0.66-0.601-1.316-1.247-1.961-1.938l0,0c-0.097-0.106-0.217-0.228-0.346-0.359l0,0     c-0.124-0.126-0.263-0.264-0.404-0.397l0,0c-0.139-0.138-0.282-0.271-0.416-0.398l0,0c-0.133-0.126-0.263-0.241-0.379-0.344l0,0     c-0.739-0.642-1.479-1.307-2.206-1.979l0,0c-0.011-0.009-0.018-0.018-0.031-0.025l0,0c-0.108-0.1-0.193-0.173-0.261-0.221l0,0     c-0.046-0.035-0.085-0.057-0.108-0.066l0,0C57.508,48.917,57.498,48.915,57.491,48.917 M84.878,60.483     c-0.05-0.006-0.151,0.001-0.294,0.022l0,0c-0.152,0.022-0.343,0.055-0.579,0.099l0,0c-1.38,0.253-2.759,0.403-4.115,0.436l0,0     c-0.209,0.006-0.433,0.015-0.67,0.022l0,0c-0.229,0.008-0.47,0.013-0.702,0.019l0,0c-0.228,0.006-0.451,0.011-0.658,0.018l0,0     c-0.106,0.005-0.214,0.005-0.31,0.009l0,0c-0.081,0.006-0.154,0.007-0.221,0.013l0,0c-0.98,0.049-1.921,0.039-2.844-0.022l0,0     c-0.155-0.011-0.264-0.016-0.326-0.009l0,0c-0.064,0.005-0.09,0.02-0.068,0.041l0,0c0.022,0.023,0.089,0.051,0.194,0.088l0,0     c0.113,0.032,0.259,0.074,0.456,0.113l0,0c1.276,0.272,2.562,0.433,3.847,0.487l0,0c0.224,0.012,0.465,0.012,0.723,0.009l0,0     c0.254-0.008,0.521-0.023,0.784-0.045l0,0c0.26-0.022,0.515-0.052,0.747-0.087l0,0c0.092-0.015,0.181-0.028,0.268-0.044l0,0     c0.127-0.022,0.238-0.046,0.344-0.071l0,0c0.996-0.229,2.031-0.531,3.1-0.903l0,0c0.165-0.058,0.275-0.105,0.33-0.139l0,0     c0.037-0.025,0.05-0.042,0.025-0.051l0,0C84.903,60.484,84.894,60.483,84.878,60.483 M55.9,49.525     c-0.028,0.015-0.024,0.062,0.009,0.137l0,0c0.038,0.077,0.111,0.187,0.215,0.32l0,0c0.705,0.89,1.421,1.729,2.135,2.515l0,0     c0.12,0.131,0.269,0.277,0.431,0.429l0,0c0.169,0.156,0.351,0.309,0.534,0.458l0,0c0.184,0.151,0.375,0.297,0.558,0.429l0,0     c0.13,0.095,0.261,0.18,0.376,0.256l0,0c0.045,0.03,0.089,0.06,0.137,0.086l0,0c0.926,0.572,1.856,1.13,2.8,1.666l0,0     c0.147,0.084,0.259,0.142,0.333,0.17l0,0c0.077,0.029,0.121,0.034,0.13,0.016l0,0c0.006-0.02-0.022-0.062-0.083-0.125l0,0     c-0.063-0.067-0.156-0.152-0.283-0.265l0,0c-0.766-0.656-1.521-1.367-2.276-2.136l0,0c-0.112-0.12-0.248-0.251-0.398-0.391l0,0     c-0.147-0.142-0.31-0.288-0.471-0.432l0,0c-0.164-0.146-0.329-0.29-0.493-0.428l0,0c-0.146-0.121-0.289-0.239-0.419-0.339l0,0     c-0.007-0.005-0.017-0.013-0.028-0.02l0,0c-0.895-0.675-1.783-1.362-2.665-2.05l0,0c-0.149-0.109-0.27-0.193-0.359-0.24l0,0     c-0.036-0.019-0.062-0.033-0.089-0.044l0,0C55.953,49.521,55.92,49.519,55.9,49.525 M81.98,60.136     c-0.042-0.005-0.122-0.006-0.246,0.005l0,0c-0.123,0.008-0.276,0.021-0.473,0.042l0,0c-1.155,0.118-2.309,0.151-3.434,0.095l0,0     c-0.174-0.009-0.362-0.018-0.562-0.029l0,0c-0.195-0.009-0.398-0.019-0.592-0.027l0,0c-0.195-0.011-0.384-0.022-0.559-0.033l0,0     c-0.126-0.009-0.247-0.015-0.352-0.021l0,0c-0.037-0.003-0.073-0.004-0.106-0.005l0,0c-0.834-0.033-1.638-0.112-2.432-0.238l0,0     c-0.13-0.021-0.222-0.031-0.28-0.036l0,0c-0.058,0.002-0.076,0.007-0.059,0.025l0,0c0.016,0.019,0.07,0.042,0.158,0.078l0,0     c0.091,0.033,0.218,0.075,0.379,0.118l0,0c1.06,0.296,2.137,0.501,3.223,0.626l0,0c0.183,0.021,0.39,0.041,0.601,0.049l0,0     c0.213,0.014,0.438,0.02,0.657,0.02l0,0c0.219,0,0.432-0.006,0.63-0.019l0,0c0.12-0.005,0.23-0.013,0.333-0.024l0,0     c0.063-0.006,0.124-0.011,0.179-0.021l0,0c0.857-0.107,1.739-0.267,2.643-0.481l0,0c0.137-0.033,0.232-0.062,0.279-0.081l0,0     c0.041-0.018,0.047-0.031,0.029-0.037l0,0C81.998,60.14,81.988,60.135,81.98,60.136 M62.378,53.135     c-0.006,0.012,0.011,0.043,0.054,0.1l0,0c0.044,0.058,0.118,0.139,0.22,0.242l0,0c0.657,0.659,1.324,1.277,1.993,1.844l0,0     c0.112,0.098,0.245,0.2,0.387,0.307l0,0c0.142,0.108,0.295,0.22,0.451,0.325l0,0c0.154,0.106,0.306,0.208,0.452,0.298l0,0     c0.136,0.085,0.264,0.161,0.377,0.222l0,0c0.009,0.005,0.018,0.011,0.021,0.015l0,0c0.711,0.391,1.435,0.751,2.17,1.076l0,0     c0.116,0.05,0.201,0.083,0.256,0.099l0,0c0.054,0.016,0.073,0.017,0.069,0.005l0,0c-0.003-0.015-0.039-0.046-0.105-0.085l0,0     c-0.065-0.047-0.157-0.102-0.273-0.173l0,0c-0.725-0.433-1.434-0.913-2.132-1.442l0,0c-0.109-0.08-0.234-0.173-0.367-0.271l0,0     c-0.133-0.098-0.27-0.2-0.412-0.302l0,0c-0.139-0.099-0.279-0.201-0.41-0.296l0,0c-0.13-0.093-0.258-0.185-0.362-0.252l0,0     c-0.69-0.469-1.362-0.963-2.029-1.481l0,0c-0.012-0.007-0.02-0.015-0.029-0.021l0,0c-0.097-0.077-0.173-0.131-0.228-0.166l0,0     c-0.031-0.02-0.06-0.033-0.076-0.039l0,0C62.391,53.132,62.383,53.132,62.378,53.135 M45.192,47.183     c-0.251-0.08-0.467-0.119-0.648-0.116l0,0c-0.182,0.001-0.322,0.037-0.421,0.112l0,0c-0.1,0.068-0.15,0.172-0.152,0.309l0,0     c0.002,0.129,0.053,0.285,0.169,0.465l0,0c0.77,1.196,1.547,2.293,2.326,3.305l0,0c0.137,0.17,0.32,0.341,0.543,0.51l0,0     c0.221,0.162,0.475,0.318,0.748,0.454l0,0c0.276,0.146,0.562,0.268,0.85,0.37l0,0c0.135,0.047,0.265,0.089,0.399,0.123l0,0     c0.147,0.042,0.291,0.079,0.434,0.107l0,0c1.546,0.295,3.062,0.698,4.559,1.184l0,0c0.232,0.076,0.411,0.114,0.549,0.127l0,0     c0.139,0.01,0.233-0.008,0.279-0.056l0,0c0.047-0.045,0.046-0.118-0.002-0.218l0,0c-0.045-0.098-0.14-0.222-0.284-0.371l0,0     c-0.841-0.871-1.685-1.817-2.524-2.842l0,0c-0.131-0.155-0.291-0.323-0.479-0.497l0,0c-0.185-0.168-0.394-0.345-0.611-0.51l0,0     c-0.223-0.167-0.454-0.329-0.686-0.47l0,0c-0.147-0.092-0.302-0.179-0.451-0.253l0,0c-0.076-0.038-0.154-0.076-0.227-0.107l0,0     c-0.559-0.242-1.117-0.469-1.683-0.688l0,0C46.996,47.778,46.099,47.465,45.192,47.183 M61.764,53.888     c-0.011,0.013,0.007,0.055,0.059,0.117l0,0c0.052,0.065,0.134,0.153,0.251,0.27l0,0c0.764,0.73,1.534,1.406,2.308,2.022l0,0     c0.136,0.107,0.289,0.218,0.454,0.335l0,0c0.164,0.116,0.346,0.234,0.524,0.345l0,0c0.182,0.111,0.363,0.219,0.536,0.314l0,0     c0.128,0.071,0.25,0.134,0.368,0.19l0,0c0.035,0.019,0.065,0.033,0.101,0.05l0,0c0.825,0.389,1.666,0.743,2.522,1.059l0,0     c0.136,0.052,0.234,0.081,0.295,0.094l0,0c0.062,0.014,0.091,0.012,0.078-0.009l0,0c-0.003-0.016-0.044-0.051-0.123-0.099l0,0     c-0.074-0.042-0.183-0.106-0.321-0.183l0,0c-0.832-0.453-1.654-0.967-2.468-1.546l0,0c-0.125-0.088-0.271-0.188-0.42-0.289l0,0     c-0.156-0.106-0.316-0.215-0.476-0.323l0,0c-0.164-0.107-0.326-0.215-0.474-0.313l0,0c-0.135-0.086-0.26-0.167-0.373-0.235l0,0     c-0.014-0.01-0.032-0.021-0.05-0.031l0,0c-0.795-0.487-1.587-1.006-2.367-1.544l0,0c-0.131-0.091-0.234-0.152-0.3-0.19l0,0     c-0.024-0.012-0.044-0.022-0.062-0.029l0,0C61.792,53.879,61.77,53.877,61.764,53.888 M53.789,50.908     c-0.119-0.034-0.211-0.037-0.254-0.002l0,0c-0.042,0.035-0.052,0.098-0.014,0.193l0,0c0.04,0.096,0.119,0.218,0.244,0.365l0,0     c0.855,0.991,1.71,1.905,2.566,2.749l0,0c0.143,0.143,0.326,0.297,0.528,0.452l0,0c0.205,0.151,0.432,0.307,0.663,0.456l0,0     c0.233,0.146,0.473,0.287,0.703,0.407l0,0c0.118,0.062,0.23,0.119,0.342,0.175l0,0c0.106,0.05,0.208,0.095,0.306,0.135l0,0     c1.166,0.488,2.329,0.994,3.503,1.497l0,0c0.18,0.076,0.319,0.126,0.416,0.146l0,0c0.093,0.021,0.147,0.017,0.16-0.012l0,0     c0.011-0.028-0.016-0.08-0.087-0.154l0,0c-0.071-0.077-0.184-0.175-0.336-0.295l0,0c-0.9-0.707-1.799-1.483-2.699-2.337l0,0     c-0.137-0.13-0.303-0.273-0.479-0.421l0,0c-0.177-0.149-0.371-0.306-0.569-0.455l0,0c-0.197-0.153-0.4-0.301-0.597-0.436l0,0     c-0.131-0.095-0.263-0.179-0.383-0.257l0,0c-0.061-0.035-0.117-0.069-0.173-0.103l0,0c-1.12-0.651-2.244-1.292-3.371-1.906l0,0     c-0.125-0.063-0.233-0.118-0.331-0.156l0,0C53.875,50.932,53.83,50.918,53.789,50.908 M39.225,45.797     c-0.116-0.024-0.235-0.054-0.349-0.067l0,0c-1.972-0.307-3.983-0.487-6.017-0.591l0,0c-0.348-0.015-0.666,0.019-0.939,0.098l0,0     c-0.279,0.075-0.519,0.193-0.702,0.349l0,0c-0.191,0.156-0.32,0.346-0.387,0.555l0,0c-0.063,0.218-0.065,0.454,0.017,0.703l0,0     c0.55,1.667,1.11,3.227,1.688,4.672l0,0c0.104,0.256,0.284,0.479,0.518,0.672l0,0c0.242,0.193,0.537,0.345,0.869,0.459l0,0     c0.335,0.111,0.707,0.183,1.087,0.21l0,0c0.157,0.012,0.315,0.017,0.472,0.01l0,0c0.231-0.004,0.461-0.024,0.688-0.059l0,0     c2.235-0.361,4.421-0.572,6.559-0.59l0,0c0.321-0.002,0.6-0.039,0.823-0.104l0,0c0.22-0.064,0.386-0.153,0.5-0.263l0,0     c0.116-0.107,0.167-0.242,0.164-0.395l0,0c-0.003-0.15-0.066-0.318-0.2-0.501l0,0c-0.751-1.058-1.5-2.22-2.245-3.478l0,0     c-0.111-0.187-0.271-0.381-0.471-0.563l0,0c-0.2-0.182-0.439-0.357-0.697-0.519l0,0c-0.261-0.163-0.54-0.304-0.836-0.423l0,0     C39.589,45.905,39.41,45.846,39.225,45.797 M74.441,59.828c-0.088-0.023-0.211-0.057-0.364-0.092l0,0     c-0.905-0.222-1.801-0.506-2.681-0.86l0,0c-0.136-0.055-0.289-0.114-0.449-0.176l0,0c-0.159-0.063-0.327-0.132-0.49-0.196l0,0     c-0.164-0.063-0.326-0.132-0.475-0.188l0,0c-0.137-0.055-0.265-0.104-0.373-0.145l0,0c-0.012-0.005-0.018-0.008-0.03-0.013l0,0     c-0.748-0.282-1.484-0.604-2.208-0.955l0,0c-0.119-0.057-0.208-0.099-0.268-0.119l0,0c-0.057-0.021-0.087-0.023-0.087-0.01l0,0     c0.005,0.018,0.037,0.05,0.1,0.101l0,0c0.066,0.05,0.158,0.117,0.285,0.197l0,0c0.826,0.535,1.665,1.007,2.509,1.412l0,0     c0.146,0.07,0.311,0.143,0.485,0.215l0,0c0.17,0.07,0.352,0.14,0.535,0.204l0,0c0.183,0.062,0.362,0.122,0.531,0.171l0,0     c0.124,0.038,0.24,0.068,0.347,0.095l0,0c0.033,0.008,0.069,0.02,0.098,0.023l0,0c0.779,0.178,1.57,0.312,2.385,0.401l0,0     c0.129,0.018,0.216,0.022,0.268,0.018l0,0c0.049-0.001,0.063-0.01,0.043-0.024l0,0c-0.009-0.003-0.022-0.013-0.043-0.021l0,0     C74.53,59.855,74.49,59.844,74.441,59.828 M60.884,55.014c-0.016,0.021,0.01,0.073,0.065,0.146l0,0     c0.057,0.073,0.158,0.177,0.292,0.299l0,0c0.916,0.812,1.825,1.548,2.739,2.215l0,0c0.158,0.113,0.338,0.235,0.539,0.357l0,0     c0.199,0.121,0.414,0.243,0.628,0.358l0,0c0.217,0.114,0.438,0.226,0.64,0.317l0,0c0.109,0.05,0.218,0.097,0.322,0.14l0,0     c0.084,0.034,0.165,0.064,0.243,0.096l0,0c0.985,0.363,1.984,0.698,3.015,0.986l0,0c0.156,0.044,0.271,0.066,0.344,0.076l0,0     c0.072,0.008,0.103-0.004,0.095-0.025l0,0c-0.013-0.024-0.062-0.061-0.149-0.111l0,0c-0.089-0.054-0.217-0.121-0.38-0.199l0,0     c-0.979-0.477-1.949-1.026-2.912-1.655l0,0c-0.147-0.096-0.316-0.203-0.5-0.318l0,0c-0.175-0.108-0.368-0.223-0.556-0.333l0,0     c-0.192-0.114-0.382-0.229-0.561-0.33l0,0c-0.124-0.072-0.245-0.137-0.354-0.196l0,0c-0.049-0.028-0.096-0.051-0.141-0.075l0,0     c-0.959-0.494-1.904-1.015-2.844-1.55l0,0c-0.155-0.086-0.277-0.149-0.365-0.183l0,0C60.958,54.997,60.905,54.991,60.884,55.014      M75.86,60.805c-0.107-0.022-0.248-0.051-0.433-0.084l0,0c-1.061-0.184-2.12-0.453-3.164-0.81l0,0     c-0.157-0.054-0.34-0.111-0.523-0.172l0,0c-0.191-0.064-0.383-0.128-0.571-0.19l0,0c-0.193-0.064-0.383-0.127-0.552-0.183l0,0     c-0.127-0.041-0.244-0.079-0.35-0.113l0,0c-0.044-0.013-0.085-0.024-0.123-0.037l0,0c-0.877-0.262-1.734-0.571-2.575-0.914l0,0     c-0.137-0.057-0.242-0.093-0.313-0.112l0,0c-0.067-0.021-0.101-0.017-0.097,0.003l0,0c0.003,0.019,0.039,0.06,0.115,0.119l0,0     c0.075,0.052,0.187,0.128,0.334,0.214l0,0c0.981,0.579,1.968,1.076,2.966,1.494l0,0c0.164,0.07,0.357,0.145,0.564,0.215l0,0     c0.201,0.073,0.416,0.14,0.633,0.197l0,0c0.216,0.062,0.426,0.116,0.623,0.156l0,0c0.114,0.026,0.223,0.047,0.319,0.066l0,0     c0.078,0.012,0.147,0.023,0.21,0.034l0,0c0.901,0.127,1.828,0.205,2.781,0.225l0,0c0.145,0.005,0.251,0.002,0.308-0.008l0,0     c0.061-0.008,0.072-0.023,0.044-0.039l0,0c-0.007-0.005-0.017-0.012-0.032-0.018l0,0C75.988,60.835,75.932,60.821,75.86,60.805      M77.667,62.012c-0.124-0.02-0.298-0.044-0.509-0.066l0,0c-1.266-0.135-2.526-0.371-3.784-0.724l0,0     c-0.188-0.051-0.403-0.107-0.628-0.167l0,0c-0.218-0.057-0.448-0.117-0.676-0.178l0,0c-0.226-0.057-0.447-0.113-0.655-0.166l0,0     c-0.106-0.027-0.211-0.052-0.306-0.074l0,0c-0.088-0.02-0.171-0.039-0.249-0.058l0,0c-1.046-0.219-2.066-0.499-3.066-0.807l0,0     c-0.172-0.054-0.293-0.086-0.379-0.098l0,0c-0.083-0.012-0.123-0.003-0.12,0.028l0,0c0.001,0.026,0.045,0.073,0.134,0.141l0,0     c0.09,0.061,0.223,0.141,0.4,0.236l0,0c1.185,0.625,2.366,1.146,3.543,1.57l0,0c0.199,0.071,0.428,0.146,0.677,0.214l0,0     c0.238,0.065,0.499,0.13,0.757,0.183l0,0c0.254,0.054,0.508,0.096,0.746,0.129l0,0c0.084,0.013,0.169,0.021,0.249,0.03l0,0     c0.139,0.015,0.269,0.025,0.384,0.032l0,0c1.068,0.05,2.171,0.043,3.312-0.044l0,0c0.17-0.016,0.292-0.032,0.361-0.053l0,0     c0.07-0.018,0.086-0.041,0.052-0.065l0,0c-0.007-0.005-0.02-0.01-0.034-0.015l0,0C77.834,62.046,77.764,62.028,77.667,62.012      M59.752,56.842c-0.117-0.019-0.189-0.006-0.213,0.036l0,0c-0.027,0.037-0.006,0.102,0.058,0.191l0,0     c0.069,0.089,0.188,0.202,0.354,0.333l0,0c1.125,0.885,2.24,1.661,3.334,2.354l0,0c0.19,0.12,0.413,0.243,0.658,0.364l0,0     c0.245,0.122,0.511,0.242,0.775,0.352l0,0c0.268,0.105,0.535,0.206,0.791,0.289l0,0c0.079,0.026,0.155,0.053,0.233,0.073l0,0     c0.164,0.052,0.322,0.095,0.462,0.126l0,0c1.209,0.283,2.435,0.552,3.696,0.778l0,0c0.193,0.032,0.332,0.046,0.425,0.044l0,0     c0.09-0.003,0.127-0.022,0.117-0.055l0,0c-0.01-0.032-0.073-0.079-0.175-0.138l0,0c-0.106-0.058-0.26-0.128-0.457-0.213l0,0     c-1.152-0.494-2.318-1.077-3.487-1.761l0,0c-0.174-0.104-0.379-0.22-0.598-0.332l0,0c-0.212-0.113-0.444-0.231-0.673-0.347l0,0     c-0.229-0.116-0.463-0.227-0.68-0.326l0,0c-0.107-0.048-0.213-0.096-0.31-0.138l0,0c-0.104-0.045-0.205-0.086-0.296-0.121l0,0     c-0.64-0.245-1.271-0.491-1.905-0.738l0,0c-0.548-0.212-1.093-0.426-1.637-0.635l0,0C60.024,56.902,59.866,56.857,59.752,56.842      M55.312,55.272c-1.508-0.451-3.04-0.817-4.598-1.072l0,0c-0.266-0.046-0.491-0.05-0.67-0.023l0,0     c-0.18,0.025-0.312,0.086-0.389,0.171l0,0c-0.085,0.087-0.112,0.197-0.08,0.33l0,0c0.037,0.13,0.126,0.281,0.287,0.44l0,0     c1.086,1.08,2.158,2.024,3.216,2.861l0,0c0.187,0.148,0.424,0.287,0.694,0.415l0,0c0.27,0.127,0.57,0.24,0.883,0.344l0,0     c0.31,0.097,0.631,0.179,0.944,0.248l0,0c0.077,0.013,0.154,0.028,0.225,0.04l0,0c0.232,0.044,0.451,0.072,0.658,0.091l0,0     c1.57,0.129,3.128,0.378,4.681,0.693l0,0c0.232,0.047,0.412,0.068,0.539,0.066l0,0c0.125-0.003,0.201-0.028,0.223-0.075l0,0     c0.025-0.051-0.009-0.12-0.089-0.207l0,0c-0.082-0.088-0.22-0.195-0.407-0.324l0,0c-1.083-0.729-2.188-1.544-3.303-2.464l0,0     c-0.169-0.138-0.371-0.285-0.597-0.433l0,0c-0.22-0.146-0.468-0.296-0.72-0.436l0,0c-0.25-0.141-0.511-0.273-0.763-0.385l0,0     c-0.108-0.05-0.219-0.098-0.326-0.139l0,0c-0.01-0.005-0.022-0.008-0.036-0.013l0,0C55.556,55.352,55.434,55.31,55.312,55.272      M25.337,45.186c-0.212-0.056-0.434-0.101-0.661-0.123l0,0c-0.168-0.02-0.339-0.031-0.511-0.028l0,0     c-2.699,0.011-5.388,0.011-8.012-0.144l0,0c-0.452-0.025-0.878,0.01-1.264,0.107l0,0c-0.392,0.092-0.736,0.24-1.024,0.443l0,0     c-0.292,0.204-0.525,0.456-0.681,0.75l0,0c-0.16,0.299-0.239,0.641-0.222,1.011l0,0c0.116,2.532,0.2,5.104,0.276,7.649l0,0     c0.013,0.449,0.13,0.878,0.334,1.25l0,0c0.202,0.379,0.494,0.704,0.847,0.954l0,0c0.36,0.248,0.783,0.419,1.244,0.496l0,0     c0.16,0.025,0.321,0.04,0.486,0.042l0,0c0.323,0.008,0.659-0.023,1.006-0.101l0,0c2.999-0.679,6.11-1.586,9.229-2.44l0,0     c0.467-0.127,0.887-0.308,1.249-0.524l0,0c0.364-0.215,0.669-0.461,0.904-0.722l0,0c0.229-0.263,0.392-0.541,0.479-0.821l0,0     c0.081-0.279,0.08-0.566-0.004-0.851l0,0c-0.503-1.613-0.985-3.338-1.464-5.162l0,0c-0.07-0.271-0.214-0.526-0.42-0.754l0,0     c-0.208-0.234-0.467-0.44-0.774-0.616l0,0c-0.175-0.099-0.369-0.191-0.57-0.27l0,0C25.641,45.277,25.492,45.229,25.337,45.186      M45.877,54.147c-0.305-0.113-0.628-0.204-0.962-0.264l0,0c-0.129-0.021-0.26-0.043-0.384-0.056l0,0     c-0.207-0.021-0.412-0.026-0.608-0.016l0,0c-2.177,0.105-4.41,0.42-6.695,0.921l0,0c-0.394,0.079-0.749,0.217-1.05,0.386l0,0     c-0.306,0.174-0.559,0.383-0.746,0.613l0,0c-0.193,0.229-0.314,0.485-0.359,0.738l0,0c-0.048,0.26-0.011,0.516,0.119,0.757l0,0     c0.899,1.64,1.825,3.051,2.762,4.267l0,0c0.169,0.219,0.421,0.378,0.74,0.474l0,0c0.318,0.106,0.697,0.15,1.109,0.14l0,0     c0.412-0.01,0.855-0.069,1.302-0.172l0,0c0.076-0.017,0.155-0.035,0.23-0.052l0,0c0.369-0.099,0.737-0.221,1.091-0.369l0,0     c2.435-1.015,4.791-1.717,7.079-2.107l0,0c0.336-0.058,0.618-0.137,0.835-0.228l0,0c0.21-0.096,0.366-0.203,0.452-0.324l0,0     c0.087-0.117,0.11-0.248,0.063-0.389l0,0c-0.045-0.14-0.158-0.284-0.34-0.438l0,0c-1.049-0.87-2.114-1.859-3.181-3.002l0,0     c-0.16-0.167-0.37-0.331-0.619-0.479l0,0c-0.232-0.138-0.499-0.268-0.785-0.379l0,0C45.914,54.161,45.896,54.154,45.877,54.147      M29.321,56.899c-1.318,0.204-3.558,0.982-4.859,1.455l0,0c-2.883,1.053-5.716,1.703-8.515,3.637l0,0     c-0.473,0.332-0.897,0.725-1.25,1.171l0,0c-0.355,0.446-0.64,0.943-0.834,1.461l0,0c-0.195,0.525-0.296,1.077-0.273,1.607l0,0     c0.133,3.734,0.31,7.255,0.554,10.488l0,0c0.044,0.587,0.229,1.043,0.523,1.352l0,0c0.303,0.314,0.72,0.473,1.222,0.47l0,0     c0.5,0,1.085-0.156,1.715-0.459l0,0c0.051-0.024,0.107-0.051,0.154-0.078l0,0c0.59-0.296,1.208-0.711,1.833-1.226l0,0     c3.844-3.152,7.745-6.241,11.564-8.878l0,0c0.558-0.383,1.047-0.793,1.458-1.198l0,0c0.409-0.406,0.74-0.807,0.975-1.186l0,0     c0.238-0.379,0.391-0.74,0.437-1.067l0,0c0.052-0.323,0.006-0.618-0.149-0.875l0,0c-0.866-1.422-1.71-3.067-2.519-4.966l0,0     c-0.289-0.67-0.678-1.391-1.314-1.636l0,0C29.832,56.89,29.592,56.859,29.321,56.899"></path></defs><use xmlns:xlink="http://www.w3.org/1999/xlink" xlink:href="#a" overflow="visible"></use><clipPath><use xmlns:xlink="http://www.w3.org/1999/xlink" xlink:href="#a" overflow="visible"></use></clipPath></g></g></g><g id="SvgjsG1489" featurekey="nameFeature-0" transform="matrix(4.2881647216399665,0,0,4.2881647216399665,109.70840528149097,-42.71010034355177)" fill="#ffffff"><path d="M22.4 10.440000000000001 c0 -0.24 0.2 -0.44 0.44 -0.44 l1.64 0 l0 30 l-2.32 0 c-0.12 0 -0.4 0 -0.64 -0.4 l-14.72 -26.68 c-0.4 -0.72 -1.2 -1.2 -1.96 -1.2 l-0.36 0 l0 27.84 c0 0.24 -0.2 0.44 -0.44 0.44 l-1.64 0 l0 -29.6 c0 -0.24 0.2 -0.44 0.44 -0.44 l2.64 0 c1 0 2.32 0.8 2.76 1.68 l14.16 25.8 l0 -27 z M35.64 9.96 l13.4 0 l0 1.32 c0 0.24 -0.2 0.44 -0.44 0.44 l-12.96 0 c-2.32 0 -4.2 1.88 -4.2 4.2 l0 8.56 c0.24 -0.24 0.6 -0.4 1 -0.4 l15.72 0 l0 1.32 c0 0.28 -0.24 0.48 -0.48 0.48 l-16.24 0 l0 13.68 c0 0.24 -0.2 0.44 -0.44 0.44 l-1.64 0 l0 -23.76 c0 -3.44 2.8 -6.28 6.28 -6.28 z"></path></g></svg>